<svg id="svg" version="1.1" xmlns="http://www.w3.org/2000/svg" xmlns:xlink="http://www.w3.org/1999/xlink" width="400" height="400" viewBox="0, 0, 400,400"><g id="svgg"><path id="path0" d="M0.000 200.000 L 0.000 400.000 200.000 400.000 L 400.000 400.000 400.000 200.000 L 400.000 0.000 200.000 0.000 L 0.000 0.000 0.000 200.000 M79.395 26.774 C 84.209 30.050,82.500 35.774,76.351 36.970 C 56.117 40.906,53.459 41.672,45.477 45.874 C 36.961 50.358,30.485 60.087,26.174 74.874 C 22.598 87.144,21.893 115.582,24.850 128.342 C 26.841 136.936,36.488 150.208,42.044 151.999 C 43.336 152.415,44.837 152.986,45.381 153.267 C 46.682 153.940,48.845 154.551,52.365 155.240 C 53.944 155.550,57.745 156.493,60.811 157.337 C 69.041 159.602,68.665 159.545,73.868 159.305 C 79.151 159.061,80.335 159.313,82.222 161.082 C 85.634 164.282,84.826 169.654,80.600 171.860 C 78.098 173.166,67.317 173.443,63.176 172.307 C 56.672 170.524,52.614 169.554,49.662 169.076 C 47.897 168.791,44.932 168.022,43.074 167.368 C 41.216 166.714,38.538 165.807,37.123 165.354 C 29.987 163.067,22.730 156.029,16.847 145.693 C 9.671 133.086,8.950 129.739,8.957 109.122 C 8.969 77.824,15.086 58.380,30.026 42.161 C 36.381 35.262,48.948 30.299,67.905 27.202 C 76.430 25.810,77.899 25.755,79.395 26.774 M119.483 116.010 C 120.342 116.333,122.824 116.561,126.858 116.688 C 139.546 117.088,149.251 117.653,151.858 118.144 C 159.241 119.535,160.957 119.922,164.865 121.079 C 169.782 122.535,173.143 123.750,175.492 124.922 C 176.413 125.382,178.542 126.325,180.222 127.018 C 181.902 127.711,184.569 128.819,186.149 129.479 C 187.728 130.139,190.769 131.238,192.905 131.921 C 213.119 138.383,219.648 152.618,211.657 172.804 C 204.718 190.333,200.950 193.521,182.939 197.103 C 182.382 197.214,178.261 197.448,173.782 197.623 C 162.326 198.071,159.455 198.475,154.054 200.397 C 143.976 203.982,140.241 204.849,132.572 205.383 C 118.333 206.373,109.010 202.529,104.587 193.846 C 103.897 192.492,102.806 190.549,102.161 189.527 C 101.516 188.505,100.683 186.605,100.310 185.304 C 99.937 184.003,99.034 181.115,98.302 178.885 C 95.825 171.335,95.782 171.035,95.853 161.655 C 95.896 155.949,96.083 152.223,96.429 150.169 C 96.711 148.497,97.091 146.064,97.274 144.764 C 97.493 143.210,98.062 141.471,98.934 139.696 C 100.324 136.868,102.107 132.114,103.496 127.534 C 106.502 117.627,112.423 113.359,119.483 116.010 M253.209 129.645 C 254.696 130.024,258.041 130.511,260.642 130.729 C 267.735 131.323,275.816 133.481,279.392 135.737 C 287.327 140.742,292.522 149.423,293.588 159.459 C 293.795 161.410,294.277 164.295,294.658 165.870 C 296.331 172.774,295.038 177.843,290.352 182.748 C 288.876 184.293,287.656 185.926,287.301 186.833 C 285.469 191.509,280.517 195.809,275.441 197.131 C 270.984 198.292,259.080 197.551,256.039 195.923 C 255.669 195.726,253.893 195.277,252.092 194.927 C 236.844 191.961,232.541 189.219,230.896 181.419 C 230.602 180.025,230.144 178.353,229.878 177.703 C 229.230 176.119,225.675 164.583,225.680 164.080 C 225.682 163.861,225.002 162.314,224.169 160.642 C 218.728 149.721,221.277 137.060,230.049 131.431 C 234.250 128.735,246.057 127.825,253.209 129.645 M335.450 137.657 C 338.174 139.066,338.368 139.748,338.854 149.662 C 339.050 153.657,339.294 157.393,339.395 157.963 L 339.580 159.001 342.509 157.555 C 351.576 153.083,368.462 154.537,374.647 160.323 C 382.845 167.991,381.515 179.217,371.848 183.945 C 365.917 186.845,350.081 186.244,343.454 182.866 L 342.482 182.371 342.698 183.500 C 343.791 189.215,343.609 210.430,342.434 214.229 C 339.417 223.981,329.762 223.373,326.558 213.230 C 323.711 204.219,324.316 187.597,327.859 177.455 L 329.421 172.984 328.904 168.502 C 327.428 155.720,327.217 141.700,328.471 139.838 C 330.126 137.383,333.114 136.449,335.450 137.657 M141.030 150.461 C 141.001 153.507,138.828 156.022,135.726 156.597 C 133.809 156.953,134.147 158.779,136.132 158.787 C 136.606 158.789,138.732 159.397,140.858 160.139 L 144.723 161.486 152.513 161.489 C 156.798 161.490,161.216 161.628,162.331 161.795 C 163.446 161.962,165.257 162.194,166.356 162.309 L 168.353 162.519 166.862 160.899 C 166.043 160.008,164.535 158.023,163.514 156.487 C 162.015 154.235,161.362 153.560,160.135 152.993 C 159.299 152.607,157.855 151.938,156.926 151.507 C 155.997 151.076,154.628 150.629,153.885 150.514 C 153.142 150.399,151.622 150.021,150.507 149.674 C 149.370 149.320,146.848 148.951,144.764 148.833 L 141.047 148.624 141.030 150.461 M264.796 151.943 C 264.071 152.819,261.752 153.701,260.135 153.714 C 256.388 153.746,254.578 156.356,253.970 162.601 C 253.591 166.499,253.868 167.492,255.708 168.835 C 256.378 169.323,257.458 170.218,258.108 170.823 C 262.297 174.724,268.698 175.015,272.635 171.486 C 273.285 170.903,274.170 170.179,274.601 169.878 C 275.314 169.379,275.352 169.213,275.031 168.020 C 274.837 167.299,274.443 164.915,274.155 162.721 C 273.266 155.936,271.262 153.072,266.485 151.758 C 265.466 151.478,265.152 151.513,264.796 151.943 M349.155 168.396 C 348.412 168.668,347.196 169.543,346.453 170.339 L 345.101 171.787 346.453 171.992 C 347.196 172.104,349.011 172.523,350.486 172.923 C 353.615 173.770,364.015 173.958,366.216 173.207 C 368.777 172.334,367.734 170.007,364.275 168.877 C 361.295 167.903,351.365 167.587,349.155 168.396 M298.686 212.175 C 312.551 216.845,312.551 235.857,298.686 240.528 C 297.562 240.907,296.222 241.216,295.707 241.216 C 295.192 241.216,293.385 241.927,291.692 242.797 L 288.612 244.377 288.394 248.931 C 288.274 251.436,288.176 255.247,288.176 257.401 L 288.177 261.318 289.781 262.405 C 291.536 263.594,298.834 266.884,304.339 268.968 C 321.681 275.532,339.321 292.483,344.370 307.432 C 349.268 321.939,344.120 334.454,330.418 341.351 C 326.000 343.575,322.273 345.972,316.861 350.066 C 308.661 356.271,301.980 359.845,295.439 361.526 C 278.070 365.990,273.627 366.892,269.012 366.892 C 246.306 366.892,244.837 335.956,267.399 332.909 C 270.542 332.484,279.365 330.644,285.642 329.103 C 288.382 328.431,291.430 326.982,293.581 325.330 C 296.357 323.197,304.108 317.881,305.945 316.850 C 307.042 316.234,308.565 315.256,309.330 314.676 L 310.721 313.622 305.783 308.574 C 300.279 302.949,297.354 300.777,292.905 299.014 C 271.062 290.356,260.063 280.888,257.585 268.609 C 256.129 261.400,257.861 238.481,260.307 232.572 C 263.508 224.839,267.646 221.069,278.605 215.903 C 287.556 211.683,293.790 210.525,298.686 212.175 M161.149 215.134 C 186.296 220.894,196.381 227.885,205.542 245.910 C 211.355 257.346,212.417 276.837,208.406 298.480 C 205.155 316.022,195.220 327.550,180.429 330.940 C 176.779 331.777,175.782 332.212,165.372 337.511 C 142.019 349.398,120.738 355.935,98.339 358.103 C 96.217 358.308,94.361 358.551,94.213 358.642 C 94.066 358.733,91.469 359.176,88.442 359.626 C 74.997 361.627,69.298 362.508,67.568 362.854 C 62.697 363.827,46.774 363.145,42.284 361.771 C 30.983 358.312,25.564 350.220,25.465 336.655 C 25.416 329.926,25.369 329.439,24.540 327.196 C 21.663 319.410,28.169 301.017,37.147 291.554 C 38.469 290.160,40.642 287.424,41.977 285.473 C 48.377 276.115,51.570 272.484,69.394 254.288 C 83.374 240.016,88.548 235.231,94.426 231.139 C 95.541 230.363,97.441 228.968,98.649 228.039 C 105.778 222.554,124.575 216.764,142.905 214.407 C 146.073 213.999,158.326 214.488,161.149 215.134 M141.861 248.805 C 135.024 249.681,129.114 251.062,120.608 253.773 C 114.748 255.641,106.778 262.062,89.748 278.633 C 75.154 292.834,72.446 295.736,66.970 303.041 C 65.089 305.549,63.029 308.205,62.392 308.943 L 61.233 310.285 62.765 312.153 C 64.570 314.353,66.480 318.283,66.768 320.389 C 67.084 322.688,67.077 322.685,70.287 322.146 C 71.857 321.883,75.194 321.420,77.703 321.118 C 80.211 320.815,84.392 320.274,86.993 319.915 C 89.595 319.556,93.091 319.173,94.764 319.066 C 113.477 317.860,130.079 313.120,151.570 302.846 C 161.499 298.100,163.900 297.086,166.892 296.373 C 168.843 295.908,170.614 295.481,170.828 295.422 C 172.233 295.041,174.292 279.833,174.312 269.692 C 174.327 262.426,174.167 261.843,170.834 256.996 L 168.698 253.890 164.839 252.462 C 153.964 248.437,149.849 247.782,141.861 248.805 " stroke="none" fill="#ec1c24" fill-rule="evenodd"></path><path id="path1" d="M67.905 27.202 C 48.948 30.299,36.381 35.262,30.026 42.161 C 15.086 58.380,8.969 77.824,8.957 109.122 C 8.950 129.739,9.671 133.086,16.847 145.693 C 22.730 156.029,29.987 163.067,37.123 165.354 C 38.538 165.807,41.216 166.714,43.074 167.368 C 44.932 168.022,47.897 168.791,49.662 169.076 C 52.614 169.554,56.672 170.524,63.176 172.307 C 67.317 173.443,78.098 173.166,80.600 171.860 C 84.826 169.654,85.634 164.282,82.222 161.082 C 80.335 159.313,79.151 159.061,73.868 159.305 C 68.665 159.545,69.041 159.602,60.811 157.337 C 57.745 156.493,53.944 155.550,52.365 155.240 C 48.845 154.551,46.682 153.940,45.381 153.267 C 44.837 152.986,43.336 152.415,42.044 151.999 C 36.488 150.208,26.841 136.936,24.850 128.342 C 21.893 115.582,22.598 87.144,26.174 74.874 C 30.485 60.087,36.961 50.358,45.477 45.874 C 53.459 41.672,56.117 40.906,76.351 36.970 C 82.500 35.774,84.209 30.050,79.395 26.774 C 77.899 25.755,76.430 25.810,67.905 27.202 M112.836 115.639 C 108.681 116.815,105.531 120.827,103.496 127.534 C 102.107 132.114,100.324 136.868,98.934 139.696 C 98.062 141.471,97.493 143.210,97.274 144.764 C 97.091 146.064,96.711 148.497,96.429 150.169 C 96.083 152.223,95.896 155.949,95.853 161.655 C 95.782 171.035,95.825 171.335,98.302 178.885 C 99.034 181.115,99.937 184.003,100.310 185.304 C 100.683 186.605,101.516 188.505,102.161 189.527 C 102.806 190.549,103.897 192.492,104.587 193.846 C 109.010 202.529,118.333 206.373,132.572 205.383 C 140.241 204.849,143.976 203.982,154.054 200.397 C 159.455 198.475,162.326 198.071,173.782 197.623 C 178.261 197.448,182.382 197.214,182.939 197.103 C 199.063 193.896,202.646 191.550,208.179 180.574 C 216.496 164.075,217.066 152.788,210.102 142.521 C 207.378 138.506,200.780 134.438,192.905 131.921 C 190.769 131.238,187.728 130.139,186.149 129.479 C 184.569 128.819,181.902 127.711,180.222 127.018 C 178.542 126.325,176.413 125.382,175.492 124.922 C 173.143 123.750,169.782 122.535,164.865 121.079 C 160.957 119.922,159.241 119.535,151.858 118.144 C 149.251 117.653,139.546 117.088,126.858 116.688 C 122.824 116.561,120.342 116.333,119.483 116.010 C 117.618 115.310,114.596 115.141,112.836 115.639 M237.838 129.045 C 231.790 129.544,226.639 132.840,223.568 138.176 C 220.505 143.497,220.781 153.842,224.169 160.642 C 225.002 162.314,225.682 163.861,225.680 164.080 C 225.675 164.583,229.230 176.119,229.878 177.703 C 230.144 178.353,230.602 180.025,230.896 181.419 C 232.541 189.219,236.844 191.961,252.092 194.927 C 253.893 195.277,255.669 195.726,256.039 195.923 C 259.080 197.551,270.984 198.292,275.441 197.131 C 280.517 195.809,285.469 191.509,287.301 186.833 C 287.656 185.926,288.876 184.293,290.352 182.748 C 295.038 177.843,296.331 172.774,294.658 165.870 C 294.277 164.295,293.795 161.410,293.588 159.459 C 292.522 149.423,287.327 140.742,279.392 135.737 C 275.816 133.481,267.735 131.323,260.642 130.729 C 258.041 130.511,254.696 130.024,253.209 129.645 C 250.149 128.866,243.262 128.597,237.838 129.045 M330.379 137.930 C 327.162 140.098,326.709 149.488,328.904 168.502 L 329.421 172.984 327.859 177.455 C 324.316 187.597,323.711 204.219,326.558 213.230 C 329.762 223.373,339.417 223.981,342.434 214.229 C 343.609 210.430,343.791 189.215,342.698 183.500 L 342.482 182.371 343.454 182.866 C 350.081 186.244,365.917 186.845,371.848 183.945 C 381.515 179.217,382.845 167.991,374.647 160.323 C 368.462 154.537,351.576 153.083,342.509 157.555 L 339.580 159.001 339.395 157.963 C 339.294 157.393,339.050 153.657,338.854 149.662 C 338.420 140.824,338.369 140.485,337.277 139.187 C 335.466 137.035,332.508 136.496,330.379 137.930 M150.507 149.674 C 151.622 150.021,153.142 150.399,153.885 150.514 C 154.628 150.629,155.997 151.076,156.926 151.507 C 157.855 151.938,159.299 152.607,160.135 152.993 C 161.362 153.560,162.015 154.235,163.514 156.487 C 164.535 158.023,166.043 160.008,166.862 160.899 L 168.353 162.519 166.356 162.309 C 165.257 162.194,163.446 161.962,162.331 161.795 C 161.216 161.628,156.798 161.490,152.513 161.489 L 144.723 161.486 140.858 160.139 C 138.732 159.397,136.606 158.789,136.132 158.787 C 134.147 158.779,133.809 156.953,135.726 156.597 C 138.828 156.022,141.001 153.507,141.030 150.461 L 141.047 148.624 144.764 148.833 C 146.848 148.951,149.370 149.320,150.507 149.674 M268.919 152.711 C 271.947 154.269,273.415 157.076,274.155 162.721 C 274.443 164.915,274.837 167.299,275.031 168.020 C 275.352 169.213,275.314 169.379,274.601 169.878 C 274.170 170.179,273.285 170.903,272.635 171.486 C 268.698 175.015,262.297 174.724,258.108 170.823 C 257.458 170.218,256.378 169.323,255.708 168.835 C 253.868 167.492,253.591 166.499,253.970 162.601 C 254.578 156.356,256.388 153.746,260.135 153.714 C 261.752 153.701,264.071 152.819,264.796 151.943 C 265.294 151.341,266.803 151.622,268.919 152.711 M364.275 168.877 C 367.734 170.007,368.777 172.334,366.216 173.207 C 364.015 173.958,353.615 173.770,350.486 172.923 C 349.011 172.523,347.196 172.104,346.453 171.992 L 345.101 171.787 346.453 170.339 C 348.518 168.126,349.545 167.882,356.250 168.016 C 361.050 168.112,362.368 168.253,364.275 168.877 M290.709 211.721 C 286.352 212.296,275.939 216.629,270.572 220.101 C 263.893 224.422,259.615 231.287,258.600 239.310 C 257.090 251.245,256.649 263.973,257.585 268.609 C 260.063 280.888,271.062 290.356,292.905 299.014 C 297.354 300.777,300.279 302.949,305.783 308.574 L 310.721 313.622 309.330 314.676 C 308.565 315.256,307.042 316.234,305.945 316.850 C 304.108 317.881,296.357 323.197,293.581 325.330 C 291.430 326.982,288.382 328.431,285.642 329.103 C 279.365 330.644,270.542 332.484,267.399 332.909 C 244.837 335.956,246.306 366.892,269.012 366.892 C 273.627 366.892,278.070 365.990,295.439 361.526 C 301.980 359.845,308.661 356.271,316.861 350.066 C 322.273 345.972,326.000 343.575,330.418 341.351 C 344.120 334.454,349.268 321.939,344.370 307.432 C 339.321 292.483,321.681 275.532,304.339 268.968 C 298.834 266.884,291.536 263.594,289.781 262.405 L 288.177 261.318 288.176 257.401 C 288.176 255.247,288.274 251.436,288.394 248.931 L 288.612 244.377 291.692 242.797 C 293.385 241.927,295.192 241.216,295.707 241.216 C 302.357 241.216,309.122 233.720,309.122 226.351 C 309.122 216.813,301.004 210.363,290.709 211.721 M142.905 214.407 C 124.575 216.764,105.778 222.554,98.649 228.039 C 97.441 228.968,95.541 230.363,94.426 231.139 C 88.548 235.231,83.374 240.016,69.394 254.288 C 51.570 272.484,48.377 276.115,41.977 285.473 C 40.642 287.424,38.469 290.160,37.147 291.554 C 28.169 301.017,21.663 319.410,24.540 327.196 C 25.369 329.439,25.416 329.926,25.465 336.655 C 25.564 350.220,30.983 358.312,42.284 361.771 C 46.774 363.145,62.697 363.827,67.568 362.854 C 69.298 362.508,74.997 361.627,88.442 359.626 C 91.469 359.176,94.066 358.733,94.213 358.642 C 94.361 358.551,96.217 358.308,98.339 358.103 C 120.738 355.935,142.019 349.398,165.372 337.511 C 175.782 332.212,176.779 331.777,180.429 330.940 C 201.158 326.188,210.575 308.127,210.566 273.142 C 210.561 253.879,207.649 245.727,195.601 231.250 C 189.795 224.274,178.994 219.221,161.149 215.134 C 158.326 214.488,146.073 213.999,142.905 214.407 M157.095 249.815 C 159.231 250.485,162.716 251.676,164.839 252.462 L 168.698 253.890 170.834 256.996 C 174.167 261.843,174.327 262.426,174.312 269.692 C 174.292 279.833,172.233 295.041,170.828 295.422 C 170.614 295.481,168.843 295.908,166.892 296.373 C 163.900 297.086,161.499 298.100,151.570 302.846 C 130.079 313.120,113.477 317.860,94.764 319.066 C 93.091 319.173,89.595 319.556,86.993 319.915 C 84.392 320.274,80.211 320.815,77.703 321.118 C 75.194 321.420,71.857 321.883,70.287 322.146 C 67.077 322.685,67.084 322.688,66.768 320.389 C 66.480 318.283,64.570 314.353,62.765 312.153 L 61.233 310.285 62.392 308.943 C 63.029 308.205,65.089 305.549,66.970 303.041 C 72.446 295.736,75.154 292.834,89.748 278.633 C 106.778 262.062,114.748 255.641,120.608 253.773 C 137.669 248.336,148.596 247.150,157.095 249.815 " stroke="none" fill="#5c5c5c" fill-rule="evenodd"></path><path id="path2" d="" stroke="none" fill="#f03c40" fill-rule="evenodd"></path><path id="path3" d="" stroke="none" fill="#f03c40" fill-rule="evenodd"></path><path id="path4" d="" stroke="none" fill="#f03c40" fill-rule="evenodd"></path></g></svg>