<svg id="svg" version="1.1" xmlns="http://www.w3.org/2000/svg" xmlns:xlink="http://www.w3.org/1999/xlink" width="400" height="400" viewBox="0, 0, 400,400"><g id="svgg"><path id="path0" d="M69.488 27.015 C 53.637 29.583,47.357 31.438,38.176 36.263 C 27.494 41.877,18.361 55.215,13.037 72.973 C 8.977 86.515,7.574 115.845,10.306 130.068 C 11.140 134.408,11.484 135.392,13.668 139.696 C 21.296 154.725,28.333 162.290,37.591 165.417 C 39.492 166.059,42.369 167.031,43.985 167.577 C 45.601 168.123,48.033 168.739,49.390 168.946 C 52.901 169.482,58.498 170.825,61.655 171.889 C 64.707 172.918,76.174 173.205,79.312 172.332 C 84.239 170.961,85.945 165.118,82.494 161.435 C 80.625 159.440,79.396 159.151,73.649 159.355 C 70.870 159.454,68.165 159.383,67.399 159.192 C 66.655 159.006,63.767 158.217,60.980 157.437 C 58.193 156.657,54.403 155.725,52.557 155.365 C 50.712 155.005,48.204 154.346,46.983 153.900 C 45.762 153.454,43.742 152.714,42.493 152.256 C 39.872 151.295,38.420 150.225,35.501 147.104 C 33.659 145.136,32.491 143.519,29.538 138.851 C 25.854 133.030,24.250 127.955,23.321 119.189 C 22.536 111.782,23.048 90.883,24.155 85.135 C 24.216 84.820,24.368 83.741,24.493 82.737 C 25.235 76.784,28.599 66.207,31.425 60.941 C 32.012 59.848,36.474 53.552,38.954 50.318 C 42.793 45.313,55.817 40.558,74.966 37.171 C 80.450 36.201,82.455 34.391,81.969 30.849 C 81.331 26.192,78.995 25.475,69.488 27.015 M113.382 115.595 C 108.758 116.625,105.298 121.108,103.188 128.803 C 102.717 130.521,101.969 132.707,101.526 133.661 C 101.083 134.615,100.617 135.947,100.491 136.621 C 100.365 137.294,100.124 137.930,99.957 138.033 C 98.924 138.672,97.439 142.979,97.131 146.231 C 97.014 147.468,96.695 149.518,96.422 150.788 C 95.775 153.794,95.778 169.082,96.426 172.174 C 96.664 173.314,97.483 176.127,98.245 178.424 C 99.007 180.722,99.954 183.742,100.349 185.135 C 100.744 186.529,101.584 188.505,102.214 189.527 C 102.844 190.549,103.966 192.548,104.708 193.970 C 107.932 200.155,112.382 203.171,120.579 204.726 C 129.654 206.448,145.900 204.392,153.159 200.604 C 156.481 198.870,161.915 198.046,172.635 197.649 C 177.188 197.480,181.216 197.276,181.588 197.194 C 181.959 197.113,183.024 196.939,183.953 196.808 C 199.304 194.646,204.795 189.862,211.589 172.730 C 217.052 158.955,215.278 146.095,206.931 138.961 C 203.978 136.436,191.462 130.743,188.864 130.743 C 188.681 130.743,187.500 130.266,186.242 129.683 C 184.983 129.100,182.432 127.974,180.574 127.182 C 178.716 126.389,175.797 125.122,174.087 124.366 C 172.378 123.610,169.109 122.441,166.824 121.768 C 164.539 121.095,162.213 120.401,161.655 120.225 C 161.098 120.049,159.122 119.617,157.264 119.264 C 155.405 118.911,152.821 118.397,151.520 118.122 C 149.998 117.800,145.966 117.540,140.203 117.393 C 135.279 117.267,130.507 117.027,129.599 116.859 C 128.691 116.691,126.239 116.554,124.151 116.554 C 121.577 116.554,119.970 116.394,119.166 116.058 C 117.653 115.426,115.069 115.219,113.382 115.595 M239.189 129.064 C 231.771 129.435,226.147 132.907,223.228 138.919 C 220.589 144.353,221.197 156.373,224.334 160.818 C 224.665 161.286,225.172 162.426,225.461 163.351 C 225.750 164.277,226.915 167.998,228.050 171.622 C 229.185 175.245,230.478 179.632,230.923 181.371 C 232.849 188.885,236.004 191.297,247.128 193.762 C 251.393 194.706,254.598 195.501,259.628 196.859 C 263.753 197.973,273.540 197.865,276.831 196.670 C 281.140 195.104,285.101 191.526,286.883 187.590 C 287.573 186.065,288.664 184.517,290.161 182.939 C 295.202 177.625,296.182 173.585,294.451 165.258 C 294.000 163.091,293.457 159.734,293.244 157.798 C 292.135 147.712,284.614 137.305,276.142 134.136 C 272.429 132.746,264.758 131.121,260.135 130.743 C 257.627 130.539,254.345 130.071,252.843 129.705 C 249.769 128.955,245.437 128.751,239.189 129.064 M330.895 137.619 C 329.476 138.263,328.114 139.977,327.833 141.471 C 327.250 144.578,328.167 162.600,329.353 171.358 C 329.497 172.421,329.513 173.409,329.389 173.554 C 328.889 174.138,326.309 182.127,325.667 185.081 C 324.301 191.364,324.883 207.819,326.668 213.364 C 329.883 223.358,339.637 223.869,342.345 214.185 C 343.413 210.365,343.716 190.083,342.786 184.730 L 342.337 182.149 343.043 182.608 C 348.054 185.863,366.403 186.609,372.154 183.792 C 383.804 178.084,381.884 161.509,369.061 157.083 C 360.469 154.118,348.774 154.420,342.132 157.779 C 340.341 158.685,339.460 158.977,339.371 158.693 C 339.156 158.010,338.873 153.574,338.654 147.466 C 338.428 141.155,337.953 139.414,336.089 138.062 C 334.945 137.231,332.255 137.002,330.895 137.619 M150.000 149.388 C 150.650 149.660,152.171 150.089,153.378 150.341 C 158.280 151.364,161.452 153.275,163.526 156.459 C 164.540 158.016,166.038 160.013,166.853 160.895 L 168.336 162.500 167.360 162.493 C 166.824 162.490,164.865 162.267,163.007 161.997 C 160.877 161.689,156.833 161.504,152.064 161.497 L 144.499 161.486 140.500 160.135 C 138.300 159.392,136.212 158.784,135.859 158.784 C 134.198 158.784,133.844 156.698,135.473 156.507 C 138.652 156.134,140.955 153.507,140.930 150.280 L 140.916 148.557 144.867 148.726 C 147.195 148.825,149.303 149.097,150.000 149.388 M269.375 152.954 C 271.933 154.494,273.775 157.947,274.149 161.903 C 274.277 163.253,274.611 165.496,274.890 166.887 C 275.397 169.409,275.396 169.417,274.623 169.927 C 274.198 170.209,273.100 171.078,272.184 171.859 C 267.402 175.933,261.856 174.697,254.798 167.985 L 253.638 166.881 253.789 163.593 C 254.101 156.773,255.705 154.331,260.367 153.582 C 263.130 153.139,264.115 152.761,264.862 151.862 C 265.477 151.120,266.902 151.465,269.375 152.954 M364.353 168.815 C 366.672 169.544,368.169 171.173,367.562 172.308 C 366.587 174.129,355.614 174.490,349.885 172.889 C 348.057 172.378,346.271 171.959,345.916 171.959 C 344.714 171.959,346.564 169.654,348.649 168.553 C 350.634 167.504,360.716 167.673,364.353 168.815 M290.372 211.861 C 286.424 212.431,284.030 213.330,275.129 217.588 C 264.427 222.708,259.247 230.385,258.275 242.568 C 258.179 243.775,257.917 246.588,257.694 248.818 C 254.907 276.697,260.855 285.136,293.140 299.100 C 298.282 301.324,300.993 303.436,307.568 310.341 L 310.820 313.755 308.535 315.264 C 307.278 316.094,305.530 317.185,304.649 317.689 C 303.045 318.607,300.233 320.548,295.009 324.342 C 289.280 328.504,278.860 331.722,266.554 333.130 C 247.850 335.271,245.851 361.638,264.034 366.375 C 268.715 367.594,273.137 367.026,287.977 363.299 C 302.489 359.654,306.474 357.841,316.675 350.241 C 324.019 344.770,325.809 343.607,330.703 341.125 C 349.325 331.684,351.321 309.040,335.077 291.494 C 324.519 280.089,315.531 273.471,304.899 269.273 C 298.138 266.604,291.829 263.760,289.854 262.493 C 287.762 261.151,287.652 260.170,288.331 248.911 L 288.611 244.275 291.518 242.799 C 293.340 241.874,295.308 241.168,296.787 240.908 C 308.508 238.852,313.100 224.281,304.681 215.862 C 301.038 212.219,296.565 210.968,290.372 211.861 M143.919 214.427 C 127.594 215.718,101.013 224.190,96.959 229.395 C 96.867 229.514,95.802 230.274,94.595 231.084 C 89.034 234.813,80.853 242.172,72.812 250.676 C 70.792 252.813,66.078 257.677,62.337 261.486 C 52.156 271.853,48.340 276.332,42.470 284.797 C 40.860 287.120,38.465 290.160,37.148 291.554 C 33.515 295.399,30.404 300.373,28.379 305.574 C 27.801 307.061,26.966 309.113,26.525 310.135 C 23.699 316.680,23.003 324.659,24.948 328.205 C 25.414 329.054,25.508 330.345,25.517 335.980 C 25.539 350.533,30.996 358.569,43.148 361.945 C 47.149 363.057,62.709 363.641,66.892 362.837 C 67.914 362.641,71.791 362.022,75.507 361.462 C 79.223 360.901,84.696 360.071,87.669 359.618 C 90.642 359.164,94.823 358.557,96.959 358.269 C 119.723 355.203,134.118 351.486,152.027 344.050 C 153.782 343.322,167.102 336.613,172.216 333.882 C 174.899 332.450,176.695 331.777,180.156 330.910 C 192.678 327.770,200.079 321.297,205.535 308.711 C 210.190 297.972,212.151 267.487,208.987 255.068 C 207.047 247.455,203.296 240.744,195.794 231.466 C 193.349 228.443,188.209 224.518,183.830 222.330 C 180.927 220.880,166.987 216.493,161.318 215.245 C 157.107 214.318,149.701 213.970,143.919 214.427 M156.081 249.405 C 157.475 249.879,159.831 250.652,161.318 251.122 C 168.680 253.450,170.528 255.011,173.587 261.486 C 175.301 265.115,174.653 279.483,172.250 291.126 C 171.351 295.480,171.480 295.348,167.117 296.388 C 163.429 297.267,162.341 297.735,148.649 304.320 C 133.792 311.465,124.371 314.554,109.328 317.211 C 101.916 318.521,101.610 318.562,95.270 319.098 C 92.204 319.357,89.392 319.632,89.020 319.709 C 88.238 319.871,85.203 320.279,76.014 321.455 C 72.390 321.919,68.877 322.391,68.207 322.503 L 66.989 322.708 66.749 320.898 C 66.336 317.787,63.219 311.713,61.486 310.641 C 61.279 310.514,62.021 309.347,63.276 307.830 C 64.455 306.403,66.989 303.108,68.907 300.507 C 75.210 291.957,110.283 258.108,112.839 258.108 C 112.969 258.108,114.239 257.273,115.662 256.251 C 123.344 250.740,147.825 246.593,156.081 249.405 " stroke="none" fill="#ec1c24" fill-rule="evenodd"></path><path id="path1" d="" stroke="none" fill="#f01c24" fill-rule="evenodd"></path><path id="path2" d="" stroke="none" fill="#f01c24" fill-rule="evenodd"></path><path id="path3" d="" stroke="none" fill="#f01c24" fill-rule="evenodd"></path><path id="path4" d="" stroke="none" fill="#f01c24" fill-rule="evenodd"></path></g></svg>